<svg xmlns="http://www.w3.org/2000/svg" viewBox="0 0 575.6 599.25"><defs><style>.cls-1{fill:#00bbd6;stroke:#f6e8d7;}.cls-1,.cls-11,.cls-2,.cls-5,.cls-8{stroke-miterlimit:10;}.cls-2{fill:#92d7e7;stroke:#00bbd6;}.cls-3{fill:#d0ecf4;}.cls-4{fill:#c0bec2;}.cls-11,.cls-5,.cls-8{fill:none;stroke:#050606;}.cls-5{stroke-width:1.77px;}.cls-6{fill:#f6e8d7;}.cls-7{fill:#989498;}.cls-8{stroke-width:1.66px;}.cls-9{fill:#f0daac;}.cls-10,.cls-12,.cls-13{fill:#231f20;}.cls-11{stroke-linecap:round;stroke-width:5px;}.cls-12{font-size:51px;}.cls-12,.cls-13{font-family:AgencyFB-Reg, Agency FB;}.cls-13{font-size:55px;}</style></defs><g id="Background"><ellipse class="cls-1" cx="287.8" cy="299.63" rx="287.3" ry="299.13"/><ellipse class="cls-2" cx="287.8" cy="299.63" rx="270.02" ry="281.13"/><ellipse class="cls-3" cx="287.8" cy="299.63" rx="165.38" ry="180.22"/></g><g id="Character"><polygon class="cls-4" points="96.76 240.03 107.23 234.3 122.42 271.56 112.76 276.39 96.76 240.03"/><path class="cls-5" d="M309.82,282.09" transform="translate(-22.02 -97.48)"/><path class="cls-6" d="M216.53,359.33C201.69,384.2,193.84,396,193.84,396l-8.29,8.71-7,7.85-7,5.68,3.06,8.72,12.65-8.29,11.78-10.91L207.8,399l6.11-5.89,10.91-13.75Z" transform="translate(-22.02 -97.48)"/><path class="cls-6" d="M309.82,279.47s44.16-8.29,50.27-12.22c0,0,18.33-4.36,29.67-3.05s23.13,17.89,23.13,17.89,15.27,29.67,2.18,65.46c0,0-21.82,97.3-23.12,106.47s2.18,34.91,0,42.76c0,0,2.18,17,1.3,20.07s0,27.06-35.78,13.1c0,0-31.85-31-29.67-61.53l-.87-27.93s-6.11-25.31-24-7c0,0-14.84,30.11-20.95,50.18,0,0-7.42,39.27-30.54,46.69s-26.62-21.82-26.62-21.82,6.54-38.4,5.67-45.81S219.15,406,219.15,406l-14-59.35s-7.42-24,0-49.31c0,0,11.35-31,27.06-31,0,0,18.32-8.73,31.85,1.75L288.53,276Z" transform="translate(-22.02 -97.48)"/><path class="cls-7" d="M129.25,373.73l17.92-9.43s20.24,38.07,24.41,53.94l6,22.69c3.84,14,12.89,30.37,16.82,39,.23.51.44,1,.63,1.43,3.49,8.15,10.76,15.71,13.67,22.4s-18,23.86-25.31,17.17-17.16-50.62-20.65-55-13.45-23.31-15-33S129.25,373.73,129.25,373.73Z" transform="translate(-22.02 -97.48)"/><path class="cls-6" d="M147.58,393.15l17.17,33.23s-16,17.75-30-2S147.58,393.15,147.58,393.15Z" transform="translate(-22.02 -97.48)"/><path class="cls-6" d="M396.65,346.24c17.6,29.21,26.92,43.06,26.92,43.06l9.83,10.23,8.28,9.23,8.28,6.66-3.62,10.25-15-9.74-14-12.81L407,392.87,399.76,386l-12.94-16.14Z" transform="translate(-22.02 -97.48)"/><path class="cls-7" d="M486.53,358.82l-18.07-9.44s-18.24,41.87-21.64,59.16L442,433.25c-3.17,15.28-11.35,33.28-14.84,42.75-.2.56-.39,1.08-.56,1.57-3.08,8.93-9.9,17.38-12.47,24.71s18.82,25,25.69,17.49,14.66-55.29,17.9-60.14S469.89,434,471,423.49,486.53,358.82,486.53,358.82Z" transform="translate(-22.02 -97.48)"/><path class="cls-6" d="M467.75,396,447.4,435s19,20.84,35.53-2.39S467.75,396,467.75,396Z" transform="translate(-22.02 -97.48)"/><path class="cls-8" d="M142.93,364.3" transform="translate(-22.02 -97.48)"/><circle class="cls-9" cx="90.65" cy="212.32" r="36.44"/><polygon class="cls-9" points="449.05 253.26 488.91 214.57 476.11 190.14 481.92 185.48 503.16 220.68 461.56 253.26 461.16 259.59 449.05 253.26"/><ellipse class="cls-10" cx="277.27" cy="245.99" rx="5.09" ry="7.85"/><ellipse class="cls-10" cx="302.14" cy="245.99" rx="5.09" ry="7.85"/><path class="cls-11" d="M281.11,370.53s2.44,30.83,30,32S344,369.07,344,369.07" transform="translate(-22.02 -97.48)"/></g><g id="Text"><text class="cls-12" transform="translate(128.37 175.14) rotate(-50.7)">T</text><text class="cls-12" transform="translate(138.23 162.82) rotate(-45.62)">R</text><text class="cls-12" transform="translate(152.22 148.52) rotate(-40.45)">E</text><text class="cls-12" transform="matrix(0.81, -0.58, 0.58, 0.81, 164.72, 137.71)">A</text><text class="cls-12" transform="translate(179.96 126.85) rotate(-30.52)">T</text><text class="cls-12" transform="translate(193.26 118.67) rotate(-24.9)">M</text><text class="cls-12" transform="translate(214.66 108.84) rotate(-19.17)">E</text><text class="cls-12" transform="translate(230.11 103.27) rotate(-13.85)">N</text><text class="cls-12" transform="matrix(0.99, -0.15, 0.15, 0.99, 250.07, 98.38)">T</text><text class="cls-12" transform="translate(266.15 96.02) rotate(-5.08)"> </text><text class="cls-12" transform="translate(274.69 94.99) rotate(-0.93)">&amp;</text><text class="cls-12" transform="matrix(1, 0.06, -0.06, 1, 295.48, 94.82)"> </text><text class="cls-12" transform="translate(304.11 95.06) rotate(7.19)">P</text><text class="cls-12" transform="translate(323.02 97.34) rotate(12.77)">R</text><text class="cls-12" transform="matrix(0.95, 0.31, -0.31, 0.95, 342.52, 101.76)">E</text><text class="cls-12" transform="matrix(0.92, 0.39, -0.39, 0.92, 358.27, 106.76)">V</text><text class="cls-12" transform="translate(375.03 113.85) rotate(28)">E</text><text class="cls-12" transform="translate(389.62 121.41) rotate(33.28)">N</text><text class="cls-12" transform="matrix(0.78, 0.62, -0.62, 0.78, 406.79, 132.71)">T</text><text class="cls-12" transform="matrix(0.74, 0.67, -0.67, 0.74, 419.48, 142.88)">I</text><text class="cls-12" transform="matrix(0.69, 0.72, -0.72, 0.69, 426.16, 148.52)">O</text><text class="cls-12" transform="matrix(0.61, 0.79, -0.79, 0.61, 440.55, 163.43)">N</text><text class="cls-13" transform="matrix(0.67, 0.74, -0.74, 0.67, 125.51, 461.57)">B</text><text class="cls-13" transform="translate(142.93 480.33) rotate(41.18)">E</text><text class="cls-13" transform="matrix(0.82, 0.57, -0.57, 0.82, 159.39, 494.68)">S</text><text class="cls-13" transform="translate(180.21 508.85) rotate(28.43)">T</text><text class="cls-13" transform="matrix(0.91, 0.41, -0.41, 0.91, 198.26, 518.38)"> </text><text class="cls-13" transform="matrix(0.95, 0.32, -0.32, 0.95, 209.71, 523.69)">D</text><text class="cls-13" transform="translate(234.57 531.8) rotate(11.99)">E</text><text class="cls-13" transform="translate(256.03 536.35) rotate(5.37)">N</text><text class="cls-13" transform="translate(282.26 538.54) rotate(-1.04)">T</text><text class="cls-13" transform="matrix(0.99, -0.12, 0.12, 0.99, 303.18, 538.13)">A</text><text class="cls-13" transform="matrix(0.97, -0.23, 0.23, 0.97, 327.08, 534.93)">L</text><text class="cls-13" transform="translate(346.56 530.1) rotate(-17.79)"> </text><text class="cls-13" transform="matrix(0.92, -0.39, 0.39, 0.92, 358.6, 526.45)">C</text><text class="cls-13" transform="matrix(0.87, -0.49, 0.49, 0.87, 382.03, 516.23)">L</text><text class="cls-13" transform="translate(399.43 506.19) rotate(-33.84)">I</text><text class="cls-13" transform="matrix(0.78, -0.63, 0.63, 0.78, 410.18, 499.25)">N</text><text class="cls-13" transform="matrix(0.71, -0.7, 0.7, 0.71, 429.98, 482.65)">I</text><text class="cls-13" transform="translate(439.24 473.87) rotate(-49.54)">C</text></g></svg>